<svg width="19" height="18" viewBox="0 0 19 18" fill="none" xmlns="http://www.w3.org/2000/svg">
<path d="M15.0438 12.6514C13.7374 12.6514 12.6747 13.7141 12.6747 15.0204C12.6747 16.3267 13.7375 17.3895 15.0438 17.3895C16.3501 17.3895 17.4128 16.3267 17.4128 15.0204C17.4128 13.7141 16.3501 12.6514 15.0438 12.6514ZM15.0438 15.9681C14.5211 15.9681 14.0961 15.5431 14.0961 15.0204C14.0961 14.4978 14.5211 14.0728 15.0438 14.0728C15.5664 14.0728 15.9914 14.4978 15.9914 15.0204C15.9914 15.5431 15.5664 15.9681 15.0438 15.9681Z" fill="white"/>
<path d="M18.849 3.49461C18.7144 3.32238 18.508 3.22193 18.2894 3.22193H4.3871L3.74744 0.545585C3.67092 0.225775 3.38495 3.24578e-09 3.05612 3.24578e-09H0.710723C0.318178 -3.71063e-05 0 0.31814 0 0.710686C0 1.10323 0.318178 1.42141 0.710723 1.42141H2.49514L4.80499 11.0863C4.88151 11.4064 5.16747 11.6319 5.4963 11.6319H16.56C16.8867 11.6319 17.1714 11.4092 17.2498 11.0922L18.9793 4.10343C19.0316 3.8912 18.9835 3.66683 18.849 3.49461ZM16.0039 10.2105H6.05729L4.7268 4.64337H17.3813L16.0039 10.2105Z" fill="white"/>
<path d="M6.4439 12.6514C5.13757 12.6514 4.07483 13.7141 4.07483 15.0204C4.07483 16.3267 5.13761 17.3895 6.4439 17.3895C7.7502 17.3895 8.81298 16.3267 8.81298 15.0204C8.81298 13.7141 7.7502 12.6514 6.4439 12.6514ZM6.4439 15.9681C5.92129 15.9681 5.49627 15.5431 5.49627 15.0204C5.49627 14.4978 5.92129 14.0728 6.4439 14.0728C6.96652 14.0728 7.39154 14.4978 7.39154 15.0204C7.39154 15.5431 6.96652 15.9681 6.4439 15.9681Z" fill="white"/>
</svg>
