<svg width="19" height="19" viewBox="0 0 19 19" fill="none" xmlns="http://www.w3.org/2000/svg">
    <path d="M15.1366 2.33661C12.0213 -0.778703 6.97884 -0.779038 3.86319 2.33661C0.747952 5.45181 0.747468 10.4944 3.86319 13.61L9.07862 18.8255C9.31132 19.0582 9.68855 19.0581 9.92122 18.8255L15.1366 13.61C18.2519 10.4948 18.2523 5.4523 15.1366 2.33661ZM14.294 12.7675L9.4999 17.5616L4.70579 12.7675C2.06233 10.124 2.06233 5.82271 4.70579 3.17925C7.34929 0.535823 11.6504 0.535748 14.294 3.17925C16.9375 5.82267 16.9375 10.124 14.294 12.7675Z" fill="white"/>
    <path d="M9.4999 4.40967C7.53042 4.40967 5.93634 6.00341 5.93634 7.97319C5.93634 9.94264 7.53016 11.5367 9.4999 11.5367C11.4694 11.5367 13.0635 9.9429 13.0635 7.97319C13.0635 6.00375 11.4697 4.40967 9.4999 4.40967ZM11.1771 9.65039C11.1543 9.65039 10.5927 10.3451 9.4999 10.3451C8.18898 10.3451 7.12798 9.28426 7.12798 7.97319C7.12798 6.66231 8.18883 5.60131 9.4999 5.60131C11.6294 5.60131 12.6529 8.17458 11.1771 9.65039Z" fill="white"/>
</svg>